<?xml version="1.0" standalone="no"?>
<!DOCTYPE svg PUBLIC "-//W3C//DTD SVG 20010904//EN"
 "http://www.w3.org/TR/2001/REC-SVG-20010904/DTD/svg10.dtd">
<svg version="1.0" xmlns="http://www.w3.org/2000/svg"
 width="1190.000000pt" height="1100.000000pt" viewBox="0 0 1190.000000 1100.000000"
 preserveAspectRatio="xMidYMid meet">
<metadata>
Created by potrace 1.16, written by Peter Selinger 2001-2019
</metadata>
<g transform="translate(0.000000,1100.000000) scale(0.100000,-0.100000)"
fill="#000000" stroke="none">
<path d="M0 5500 l0 -5500 5950 0 5950 0 0 5500 0 5500 -5950 0 -5950 0 0
-5500z m5667 4610 c158 -22 275 -81 393 -200 94 -94 142 -172 181 -300 20 -62
24 -96 23 -200 0 -107 -4 -136 -27 -205 -75 -227 -227 -383 -450 -462 -96 -34
-272 -43 -366 -19 -140 36 -243 92 -339 187 -220 216 -273 538 -135 819 39 79
61 110 132 181 71 71 102 93 181 132 52 26 120 51 150 57 30 5 78 13 105 18
28 5 57 8 65 6 8 -2 47 -8 87 -14z m-2922 -404 c33 -9 98 -35 145 -58 68 -33
102 -58 171 -127 70 -71 93 -103 132 -181 234 -474 -100 -1019 -625 -1020
-383 0 -698 320 -698 709 0 92 40 244 87 334 52 98 183 229 278 279 62 32 165
68 235 82 47 9 215 -2 275 -18z m6240 -91 c115 -25 243 -95 333 -184 88 -86
141 -169 179 -280 38 -111 44 -295 13 -407 -65 -235 -237 -415 -467 -492 -68
-22 -95 -26 -208 -26 -114 0 -139 3 -208 26 -105 35 -207 98 -282 173 -77 77
-122 145 -166 255 -34 84 -34 86 -34 245 1 155 1 162 32 241 43 111 93 186
179 270 83 82 216 155 325 178 85 19 218 19 304 1z m1090 -2340 c293 -51 510
-277 562 -584 47 -278 -88 -565 -338 -716 -145 -89 -354 -119 -519 -75 -262
69 -444 255 -511 520 -18 69 -20 103 -16 189 6 125 25 201 74 296 42 82 56
102 126 174 97 100 231 173 361 196 97 18 158 18 261 0z m-2727 -45 c63 -8
118 -30 385 -153 l312 -144 -4 -124 c-3 -129 -13 -158 -46 -145 -15 5 -16 21
-13 116 l3 110 -35 0 c-19 0 -42 -5 -50 -10 -12 -8 -10 -10 10 -10 l25 0 -3
-109 -3 -109 -42 -7 c-23 -5 -996 -9 -2162 -11 -1166 -1 -2127 -3 -2135 -3 -8
-1 0 -10 18 -21 32 -20 51 -20 2075 -20 l2042 0 52 -45 c28 -25 59 -45 68 -45
15 0 16 -11 11 -102 -3 -57 -8 -200 -11 -318 -3 -118 -12 -402 -20 -630 -8
-228 -16 -507 -20 -620 -5 -205 -10 -377 -20 -695 -3 -93 -10 -314 -15 -490
-5 -176 -12 -376 -15 -445 -3 -69 -10 -291 -15 -495 -5 -203 -12 -428 -15
-500 -3 -71 -8 -242 -11 -380 -3 -142 -12 -282 -20 -325 -17 -92 -55 -171
-105 -221 -71 -71 -64 -70 -431 -75 l-331 -4 -23 -25 c-29 -31 -49 -32 -78 0
l-23 24 -1086 3 c-828 2 -1081 0 -1064 -9 14 -7 28 -8 39 -2 23 12 28 11 28
-6 0 -14 -29 -35 -50 -35 -6 0 -21 11 -34 25 l-23 25 -332 4 c-315 5 -333 6
-366 26 -77 48 -135 144 -160 267 -8 43 -17 206 -24 443 -6 206 -13 443 -16
525 -3 83 -7 238 -10 345 -3 107 -12 389 -20 625 -8 237 -17 513 -20 615 -3
102 -7 264 -10 360 -12 400 -26 852 -35 1110 -5 151 -12 390 -16 530 -4 140
-8 266 -9 280 -2 14 -3 88 -4 166 l-1 140 -76 11 c-42 6 -80 15 -85 20 -5 5
-12 67 -15 138 l-6 130 163 74 c409 187 470 212 526 220 81 12 3260 13 3351 1z
m-5969 -71 c266 -33 480 -211 573 -476 28 -80 31 -100 31 -218 1 -121 -1 -137
-30 -221 -105 -304 -354 -484 -670 -484 -298 0 -553 186 -660 480 -24 68 -27
88 -27 220 0 132 3 152 27 219 106 294 341 470 652 490 11 0 58 -4 104 -10z
m2823 -5969 c2 -6 77 -23 168 -38 161 -27 165 -28 168 -53 4 -33 -18 -51 -103
-84 -101 -39 -101 -39 -95 -180 7 -146 -3 -185 -49 -185 -16 0 -36 6 -44 14
-12 12 -178 266 -212 324 -5 10 -29 48 -52 84 -40 63 -53 105 -36 121 11 12
251 8 255 -3z m3198 -22 c0 -21 -17 -59 -52 -112 -28 -45 -65 -103 -83 -131
-170 -266 -177 -275 -211 -275 -13 0 -32 12 -44 27 -21 26 -21 34 -15 164 l7
136 -77 29 c-88 34 -128 64 -123 96 3 21 15 24 168 50 91 15 166 32 168 38 2
6 53 10 133 10 l129 0 0 -32z m-420 -238 c-12 -7 -15 -35 -15 -147 0 -137 6
-163 36 -163 7 0 9 -3 6 -6 -12 -13 -67 19 -93 53 -29 39 -41 106 -30 166 7
39 66 107 92 107 16 0 17 -2 4 -10z m-2522 -160 c-4 -74 -19 -105 -71 -144
-32 -23 -135 -34 -163 -17 -18 11 -18 11 1 9 11 -1 37 4 58 11 41 14 86 72 88
113 0 13 3 18 5 11 8 -19 64 37 64 64 0 12 5 23 11 23 8 0 10 -23 7 -70z"/>
<path d="M5418 10024 c-204 -49 -398 -242 -453 -450 -20 -77 -20 -241 0 -318
20 -77 84 -198 136 -259 55 -63 155 -133 242 -169 229 -93 485 -39 667 143 70
70 116 147 152 252 76 228 11 478 -169 648 -78 74 -182 132 -274 154 -79 18
-224 18 -301 -1z m307 -184 c0 -8 -12 -21 -27 -28 l-28 -13 0 -119 c0 -65 4
-130 9 -143 5 -14 33 -37 64 -55 133 -75 189 -225 137 -366 -25 -66 -119 -159
-178 -175 -51 -15 -256 -14 -306 1 -26 8 -61 33 -101 73 -67 66 -95 129 -95
211 0 99 74 215 169 263 22 12 45 30 51 40 5 11 10 76 10 146 0 111 -2 126
-17 132 -30 10 -42 24 -36 39 8 22 348 16 348 -6z"/>
<path d="M5487 9803 c-4 -3 -7 -75 -7 -158 l0 -152 -67 -40 c-100 -59 -171
-162 -149 -218 8 -23 564 -23 572 0 22 57 -51 165 -151 220 l-65 37 0 159 0
159 -63 0 c-35 0 -67 -3 -70 -7z"/>
<path d="M2385 9622 c-105 -35 -180 -82 -254 -156 -250 -254 -245 -650 12
-899 64 -62 160 -121 232 -143 302 -90 606 36 747 311 25 50 51 114 57 143 16
76 14 238 -4 306 -37 142 -159 303 -286 379 -154 91 -344 114 -504 59z m321
-216 c129 -60 183 -215 118 -344 -25 -49 -100 -122 -128 -122 -31 -1 -38 -17
-22 -48 21 -41 20 -90 -3 -135 -14 -27 -17 -46 -11 -76 9 -53 -3 -126 -25
-151 -39 -43 -79 26 -73 128 2 48 -1 63 -20 87 -20 25 -23 39 -20 90 2 33 8
68 12 77 6 13 0 20 -31 33 -48 20 -98 68 -126 120 -16 30 -21 58 -21 110 0 52
5 80 21 110 66 125 209 177 329 121z"/>
<path d="M2490 9368 c-132 -80 -148 -255 -32 -360 105 -95 265 -69 336 55 50
87 42 184 -22 258 -74 86 -186 104 -282 47z"/>
<path d="M8752 9549 c-137 -18 -247 -74 -353 -180 -122 -120 -189 -282 -189
-450 1 -192 113 -402 271 -510 119 -80 212 -109 359 -109 90 0 117 4 188 29
192 67 319 193 399 397 24 63 27 81 27 199 0 118 -3 137 -28 205 -109 288
-381 458 -674 419z m158 -72 c0 -7 -5 -18 -11 -24 -5 -5 -9 -30 -7 -54 3 -38
6 -44 28 -47 52 -8 60 -26 60 -144 0 -104 1 -110 29 -149 l30 -40 0 -284 c0
-179 -3 -295 -10 -314 -17 -49 -52 -61 -178 -61 -114 0 -155 9 -177 38 -10 13
-13 88 -14 322 0 287 1 307 20 338 17 27 20 50 20 140 0 100 2 110 23 129 12
11 30 23 40 26 22 8 24 89 2 107 -26 21 -6 30 71 30 54 0 74 -3 74 -13z"/>
<path d="M9785 7190 c-202 -53 -372 -221 -437 -430 -32 -105 -32 -246 0 -350
65 -210 213 -360 427 -431 104 -35 250 -32 360 5 265 90 435 326 435 600 0
172 -64 321 -189 446 -86 85 -177 138 -282 164 -87 21 -225 20 -314 -4z m105
-219 c0 -5 -7 -12 -16 -15 -29 -11 -11 -147 44 -341 35 -120 48 -181 45 -208
-8 -57 5 -122 32 -161 21 -31 22 -36 8 -48 -22 -18 -344 -24 -384 -7 -52 21
-52 24 36 319 86 286 105 412 68 452 -15 17 -13 18 75 18 51 0 92 -4 92 -9z
m358 -40 c10 -6 10 -10 -3 -21 -12 -10 -15 -41 -15 -178 l0 -165 41 -35 c52
-45 69 -85 69 -163 0 -73 -19 -119 -69 -160 -34 -29 -40 -30 -114 -27 -76 3
-80 4 -112 40 -81 88 -72 240 20 315 l37 31 -2 163 c0 90 -5 168 -10 173 -6 6
-10 16 -10 23 0 15 145 19 168 4z"/>
<path d="M3797 7081 c-147 -76 -264 -141 -260 -144 11 -12 3661 -8 3668 3 3 6
1 10 -6 10 -9 0 -10 33 -5 135 l8 135 -1569 -1 -1568 -1 -268 -137z"/>
<path d="M5270 6086 c0 -8 22 -164 50 -348 27 -183 50 -336 50 -340 0 -5 22
-8 49 -8 l49 0 10 58 c5 31 22 133 38 226 16 99 30 161 34 150 4 -11 22 -112
41 -226 l33 -208 48 0 c41 0 48 3 53 23 2 12 25 162 50 332 25 171 48 320 50
333 5 21 2 22 -49 22 -64 0 -57 20 -81 -235 -9 -93 -20 -178 -23 -188 -4 -11
-23 73 -46 203 l-39 221 -41 -3 -41 -3 -36 -207 c-20 -114 -39 -213 -41 -220
-3 -7 -15 88 -28 210 l-24 222 -53 0 c-39 0 -53 -4 -53 -14z"/>
<path d="M5890 5745 l0 -355 150 0 150 0 0 50 0 50 -100 0 -100 0 0 105 0 105
90 0 90 0 0 50 0 50 -90 0 -90 0 0 105 0 105 100 0 100 0 0 45 0 45 -150 0
-150 0 0 -355z"/>
<path d="M4844 5570 c-26 -10 -54 -48 -54 -72 0 -32 44 -71 80 -71 24 0 40 7
57 27 29 34 29 58 1 90 -27 29 -55 38 -84 26z"/>
<path d="M6574 5570 c-26 -10 -54 -48 -54 -72 0 -32 44 -71 80 -71 24 0 40 7
57 27 29 34 29 58 1 90 -27 29 -55 38 -84 26z"/>
<path d="M1132 7070 c-100 -26 -181 -72 -262 -147 -354 -328 -232 -900 227
-1060 107 -37 263 -39 368 -5 182 60 311 175 390 347 47 101 58 165 53 291 -4
86 -11 124 -32 179 -118 308 -434 476 -744 395z m239 -150 c111 -21 193 -83
237 -178 21 -46 24 -65 20 -122 -6 -81 -30 -135 -105 -233 -69 -90 -93 -138
-102 -196 -5 -38 -10 -47 -29 -49 -19 -3 -22 1 -22 35 0 64 19 157 50 254 17
51 28 94 25 97 -3 3 -16 -4 -28 -17 -25 -23 -57 -20 -57 5 0 8 -7 14 -15 14
-8 0 -15 -4 -15 -10 0 -5 -10 -15 -22 -21 -19 -10 -24 -8 -41 12 l-19 24 -15
-22 c-19 -29 -31 -29 -60 -1 -13 12 -25 19 -28 16 -3 -3 8 -45 24 -94 32 -95
51 -192 51 -261 0 -33 4 -43 16 -43 15 0 16 10 10 78 -3 42 -17 118 -31 167
-13 49 -22 91 -19 94 6 6 192 7 198 0 2 -2 -6 -47 -20 -99 -13 -52 -27 -128
-31 -167 l-6 -73 27 0 c15 0 37 -5 48 -11 21 -11 21 -12 4 -25 -11 -8 -16 -20
-12 -29 4 -10 -4 -25 -21 -41 -22 -20 -36 -24 -89 -24 -56 0 -66 3 -88 27 -19
20 -22 30 -14 40 7 9 6 14 -6 19 -23 9 -20 31 6 40 l23 7 -23 8 c-17 7 -22 16
-22 44 0 45 -37 119 -100 199 -140 179 -147 332 -19 451 86 81 193 109 320 85z"/>
</g>
</svg>
